<svg xmlns="http://www.w3.org/2000/svg" width="475.14" height="514.52" viewBox="0 0 475.14 514.52">
  <g id="AdobeStock_325094260_Converted_" data-name="AdobeStock_325094260 [Converted]" transform="translate(-689.05 -1009.59)">
    <g id="Group_34" data-name="Group 34" transform="translate(-608 658)">
      <g id="Group_30" data-name="Group 30">
        <g id="Group_28" data-name="Group 28">
          <path id="Path_59" data-name="Path 59" d="M1708.74,524.38,1656.3,473.5l-71.38,1.07-12.2.11-.23-9.85c-.01-.49-.01-.99-.01-1.48a87.808,87.808,0,0,1,1.56-16.58v-.03l.2-1.01a87.827,87.827,0,1,1,149.62,78.21l-4.98,5.22-10.13-4.78Z" fill="#fff"/>
          <path id="Path_60" data-name="Path 60" d="M1659.18,577.6c-2.09,0-4.31-.07-6.8-.22l-9.41-.55v-9.95l3.8-36.46,9.61.64c1.2.08,2.48.12,3.91.12h1.04a67.819,67.819,0,0,0-1.04-135.63,68.012,68.012,0,0,0-66.35,53.68l-.11.55a68.042,68.042,0,0,0-1.36,13.6v1a67.626,67.626,0,0,0,4.51,23.39l-9,3.48.94,10.05.26-.03c-.19.03-.37.05-.56.07-9.89,1.02-18.93,1.79-27.62,2.36l-7.97.52-2.27-7.66a112.263,112.263,0,0,1-4.59-31.93,114.423,114.423,0,0,1,1.92-20.86,113.019,113.019,0,1,1,111.09,133.86Z" fill="#fff"/>
          <path id="Path_61" data-name="Path 61" d="M1651.44,539.11l-.54-36.2h-.15v-8.28l-.42-29.43-.66-26.01,70.61,68.51,13.13,6.19-9.57,10.03a87.064,87.064,0,0,1-62.23,27.21l-10,.14-.17-12.18Z" fill="#fff"/>
          <path id="Path_62" data-name="Path 62" d="M1485.1,782.81c-39.35,0-76.91-3.22-105.74-9.06-30.56-6.19-43.37-13.43-49.08-19.7h-3.61l-.97-8.96-28.5-273.5,19.75-3.02a4.3,4.3,0,0,0-.88-1.98c.07.07,7.29,7.19,53.08,13.14,32.02,4.16,73.2,6.45,115.96,6.45,26.24,0,51.32-.83,74.54-2.47,8.48-.56,17.26-1.3,26.88-2.29a8.592,8.592,0,0,1,.87-.1l1.39-.15c1.4-.14,2.75-.29,4.09-.45l1.46-.18.22-.02c.35-.03.7-.07,1.05-.11.47-.05.88-.11,1.29-.16l.16-.02,1.7-.22c1.24-.15,2.48-.32,3.7-.48l1.18-.15c.33-.05.65-.1.97-.14l1.85-.25c.25-.04.51-.08.76-.11l.84-.12c.15-.02.6-.07.82-.12l.63-.14.33-.03.73-.09c.34-.05.68-.09,1.01-.16l.4-.07.18-.02,2.85-.44c3.63-.58,7.01-1.19,10.04-1.8,1.29-.25,2.52-.5,3.72-.76.63-.13,1.16-.24,1.67-.36.28-.07.57-.13.85-.19q.75-.165,1.47-.33l.64-.16c.34-.08.69-.17,1.03-.25.54-.13,1.08-.26,1.62-.38.51-.12,1.06-.27,1.58-.41.24-.07.47-.14.71-.2h0c.23-.07.47-.13.71-.19l1.48-.46h.13c.33-.09,1.08-.32,1.08-.32.65-.18,1.28-.38,1.9-.58l.1-.03c1.23-.39,2.43-.8,3.54-1.23l.41-.15c.17-.06.34-.12.5-.19l.18-.07a33.764,33.764,0,0,0,4.21-2c.29-.17.58-.35.85-.53l.25-.17.12-.11.23-.17c.09-.08.13-.12.13-.12a.435.435,0,0,0-.06.07l.16-.11c-.05.04-.11.08-.16.12a.265.265,0,0,1-.05.06l.11-.07,1.68,2.46,17.18,2.47-2.28,21.8-.05.6-7.77,74.49-19.33,185.61h-3.85c-5.33,5.61-17.85,13.44-49.5,19.85-28.41,5.75-65.74,8.91-105.13,8.91Zm-116.72-60.64c2.63,2.18,12.13,7.09,34.71,11.41,22.77,4.36,51.9,6.75,82.01,6.75s60.14-2.44,82.76-6.88c22.01-4.32,31.32-9.25,34-11.53l17.92-174.52c-4.25-1.69-15.19-4.87-41.43-7.7-25.87-2.78-58.95-4.32-93.15-4.32s-67.27,1.53-93.14,4.32c-24.81,2.67-35.95,5.66-40.67,7.41l1.89,7.09h-2.02l17.12,167.95Z" fill="#fff"/>
          <path id="Path_63" data-name="Path 63" d="M1660.29,551.17c-1.88,0-3.59-.05-5.23-.16l-10.36-.69,7.03-67.41h18.86l.16,9.85.72,48.25.13,9.63-9.62.49c-.56.03-1.13.03-1.69.03Z" fill="#fff"/>
          <path id="Path_64" data-name="Path 64" d="M1669.68,439.4l.65,25.47.19,13.85-3.36,3.03q-.39.345-.78.66c-.12.1-.24.19-.36.28l-.26.21-.24.16-.83.59c-.61.42-1.26.83-1.99,1.25a53.649,53.649,0,0,1-6.78,3.26c-.39.16-.79.32-1.19.47l-.29.11c-1.54.59-3.11,1.11-4.59,1.59-.85.27-1.68.53-2.54.78l-2.48.7-35.87,10.18,60.73-62.6Z" fill="#fff"/>
          <path id="Path_65" data-name="Path 65" d="M1578.33,494.95a87.179,87.179,0,0,1-5.85-30.21l-.16-10.07,12.36-.11,99.59-1.49-37.95,39.12h-2.86l-.68.2c-.68.18-1.39.37-2.11.54-.54.14-1.08.27-1.64.4s-1.11.27-1.68.39c-.36.09-1.89.44-1.89.44l-.63.13c-.36.08-1.78.39-1.78.39-1.37.29-2.72.57-4.1.84-3.38.67-7.01,1.31-10.81,1.92-.23.04-1.3.2-1.3.2-.36.06-.8.12-1.24.18-.15.03-.31.05-.46.08-.59.11-1.2.2-1.82.28l-.22.03-.29.03q-.165.03-.36.06c-.54.09-1.1.17-1.65.25-.25.04-.5.08-.74.11l-3.61.5c-.48.07-.97.14-1.47.2l-3.83.49-1.69.22c-.47.05-.94.11-1.42.17s-1.01.13-1.57.18l-1.22.14c-1.39.17-2.86.33-4.36.49l-1.1.11-.13.03-.96.09h-.13l-7.53.71-2.73-7.05Z" fill="#fff"/>
          <path id="Path_66" data-name="Path 66" d="M1653.11,467.35c.21-.15.42-.3.61-.44l.11-.08,11.85,16.11c-.28.22-.6.44-.91.66l-11.66-16.25Z" fill="#fff"/>
          <path id="Path_67" data-name="Path 67" d="M1636.8,473.31l4.93-1.39,5.58,19.21c-.82.24-1.66.48-2.52.73l-35.94,10.1,27.97-28.64Z" fill="#fff"/>
          <path id="Path_68" data-name="Path 68" d="M1642.09,482.2l-.02.02h0c-.16.05-.32.1-.48.14a4.421,4.421,0,0,0,.48-.15.1.1,0,0,1,.03-.01Z" fill="#fff"/>
          <path id="Path_69" data-name="Path 69" d="M1637.49,473.11l.6-.18.3-.1.89-.22,4.59,19.47s.11-.03.19-.05l-.17.05-.57.16Z" fill="#fff"/>
          <path id="Path_70" data-name="Path 70" d="M1485.1,866.11c-36.97,0-72.32-3.07-99.53-8.65-34.55-7.08-45.16-15.61-48.97-22.28l-1.66-1.34-10.4-99.79h18.23l2.25,6.42c1.69,2.2,12.07,8.69,41.61,14.32,27.09,5.17,62.07,8.01,98.47,8.01s72.58-2.91,99.5-8.18c29.61-5.81,39.48-12.55,40.83-14.71l2.61-5.87h17.6l-1.11,11.04-9.25,88.76-1.81,1.46c-3.13,5.17-12.66,14.77-49.41,22.29-26.81,5.49-61.95,8.51-98.94,8.51Z" fill="#fff"/>
          <path id="Path_71" data-name="Path 71" d="M1628.71,475.16l2.09-.46.57-.11,3.94,19.61-.33.07c-.68.16-1.38.3-2.08.45l-4.19-19.56Z" fill="#fff"/>
          <path id="Path_72" data-name="Path 72" d="M1330.6,546.8a12.26,12.26,0,0,1-.41-3.15c0-11.17,13.47-15.18,18.54-16.69,7.83-2.33,18.82-4.39,32.68-6.14,27.79-3.5,64.65-5.42,103.79-5.42s76.01,1.93,103.8,5.42c13.86,1.74,24.85,3.81,32.68,6.14,5.07,1.51,18.54,5.52,18.54,16.69v9.98l-9.98.06-297.66.54-1.98-7.44Z" fill="#fff"/>
          <path id="Path_73" data-name="Path 73" d="M1485.2,571.9c-38.35,0-74.66-1.86-102.25-5.23-40.78-4.99-50.28-11.38-52.4-20.08l-3-12.34,312.68-.57v10.64l-.14,1.17-.03.2c-1.44,8.72-10.59,12.45-19.35,14.95-7.96,2.27-18.97,4.28-32.75,5.98-27.66,3.41-64.15,5.29-102.75,5.29Z" fill="#fff"/>
          <path id="Path_74" data-name="Path 74" d="M1620.26,542.8l.04-.32,19.92,1.24a11.315,11.315,0,0,1-.38,2.9l-19.58-3.82Z" fill="#fff"/>
          <path id="Path_75" data-name="Path 75" d="M1485.11,760.34c-33.3,0-65.2-2.81-89.83-7.92-36.64-7.6-43.83-17.11-46.06-23.6l-.37-1.09-19.73-193.52h18.93l1.29,5.11c3.04,1.44,13.21,5.08,42.72,8.26,25.86,2.78,58.94,4.32,93.14,4.32s67.28-1.53,93.14-4.32c37.02-3.98,43.6-8.69,43.86-8.89a6.186,6.186,0,0,0-1.89,3.71l19.81,2.66-18.8,183.12-.65,1.46c-1.61,3.63-6.52,14.67-46.27,22.9-24.27,5.03-55.98,7.8-89.3,7.8Zm-58.39-89.94a9.929,9.929,0,0,0-4.35.99l-19.26,9.19a10.294,10.294,0,0,0-4.85,13.66l9.19,19.28a10.339,10.339,0,0,0,9.32,5.83,9.961,9.961,0,0,0,4.35-.99l19.27-9.19a10.3,10.3,0,0,0,4.85-13.69l-9.19-19.25a10.349,10.349,0,0,0-9.32-5.84Zm110.58-67.56a11.378,11.378,0,0,0-9.71,5.32l-12.02,19.11a11.462,11.462,0,0,0,3.58,15.74l19.1,12.02a11.286,11.286,0,0,0,6.03,1.74h0a11.425,11.425,0,0,0,9.73-5.32l12.02-19.1a11.435,11.435,0,0,0-3.6-15.75l-19.1-12.02a11.3,11.3,0,0,0-6.02-1.73Z" fill="#fff"/>
          <path id="Path_76" data-name="Path 76" d="M1611.77,478.2l.23-.04.35-.07.28-.03c.35-.05.69-.09,1.01-.15l3.28,19.73c-.29.05-1.36.21-1.36.21-.34.06-.72.12-1.09.16l-2.7-19.81Z" fill="#fff"/>
          <path id="Path_77" data-name="Path 77" d="M1610.15,478.45c-.35.03-.69.08-1.02.14.14-.03.61-.12.61-.12l.22-.03c.35-.05.69-.08,1.03-.12l2.35,19.86c-.19.03-.58.07-.58.07-.32.05-.64.09-.99.12l-1.63-19.93Z" fill="#fff"/>
          <path id="Path_78" data-name="Path 78" d="M1599.93,489.93c1.29-.16,2.58-.33,3.85-.49-1.27.17-2.56.34-3.85.5-.53.06-1.05.13-1.58.2l1.58-.21Z" fill="#fff"/>
          <path id="Path_79" data-name="Path 79" d="M1594.55,480.52c.28-.03.55-.06.83-.1.68-.09,1.26-.16,1.85-.22l2.43,19.85-.15.02c-.54.07-1.08.14-1.64.2-.46.05-.98.11-1.5.16l-1.81-19.92Z" fill="#fff"/>
          <path id="Path_80" data-name="Path 80" d="M1586.9,481.37l.44-.05,1.45-.15,2.06,19.89-1.33.15a11.719,11.719,0,0,1-1.41.09Z" fill="#fff"/>
          <path id="Path_81" data-name="Path 81" d="M1578.25,591.89a16.538,16.538,0,0,1-16.52-16.52,16.518,16.518,0,1,1,16.52,16.52Z" fill="#fff"/>
          <path id="Path_82" data-name="Path 82" d="M1544.27,676.76a31.252,31.252,0,0,1-16.68-4.81l-19.1-12.02a31.468,31.468,0,0,1-9.86-43.32l12.02-19.1a31.475,31.475,0,0,1,43.32-9.87l19.1,12.02a31.473,31.473,0,0,1,9.87,43.33l-12.02,19.1A31.308,31.308,0,0,1,1544.27,676.76Z" fill="#fff"/>
          <path id="Path_83" data-name="Path 83" d="M1485.11,506.18c-47.08,0-91.66-2.69-125.52-7.58-16.83-2.43-30.34-5.3-40.14-8.55-9.27-3.07-20.15-7.83-22.11-17.52l-.09-.43-.2-1.8v-.56c.07-13.95,17.66-22.23,60.73-28.63,34.1-5.07,79.32-7.86,127.33-7.86,25.36,0,50.07.78,73.47,2.33l11.21.74-2.04,11.05a95.1,95.1,0,0,0-1.58,17.22,92.409,92.409,0,0,0,3.77,26.25l3.54,11.94-12.42.88c-23.69,1.67-49.24,2.52-75.94,2.52Z" fill="#fff"/>
          <path id="Path_84" data-name="Path 84" d="M1481.51,740.98a16.52,16.52,0,1,1,11.67-28.19,16.515,16.515,0,0,1-11.67,28.19Z" fill="#fff"/>
          <path id="Path_85" data-name="Path 85" d="M1416.76,739.35a30.414,30.414,0,0,1-27.37-17.23l-9.19-19.26a30.3,30.3,0,0,1,14.3-40.33l19.25-9.19a29.9,29.9,0,0,1,12.97-2.94,30.436,30.436,0,0,1,27.37,17.23l9.19,19.26a30.313,30.313,0,0,1-14.29,40.34l-19.27,9.19a29.813,29.813,0,0,1-12.96,2.93Z" fill="#fff"/>
          <path id="Path_86" data-name="Path 86" d="M1415.21,628.31a15.475,15.475,0,1,1,10.94-26.41,15.475,15.475,0,0,1-10.94,26.41Z" fill="#fff"/>
        </g>
        <g id="Group_29" data-name="Group 29">
          <rect id="Rectangle_4" data-name="Rectangle 4" width="262.69" height="20" transform="matrix(0.104, -0.995, 0.995, 0.104, 1615.792, 827.65)" fill="#fff"/>
          <path id="Path_87" data-name="Path 87" d="M1334.51,829.72l-37.4-358.87,19.88-2.23.09.81,37.33,358.21Z" fill="#fff"/>
          <path id="Path_88" data-name="Path 88" d="M1485.11,506.18c-47.08,0-91.66-2.69-125.52-7.58-16.83-2.43-30.34-5.3-40.14-8.55-9.23-3.05-20.08-7.79-22.09-17.42a13.46,13.46,0,0,1-.31-2.89c.07-13.95,17.66-22.23,60.73-28.63,34.1-5.07,79.32-7.86,127.33-7.86,25.36,0,50.07.78,73.47,2.33l-1.32,19.96c-22.96-1.52-47.23-2.29-72.15-2.29-42.75,0-83.94,2.3-115.97,6.47-26.76,3.49-40.35,7.37-47.04,10.01,6.68,2.64,20.27,6.51,47.04,9.99,32.02,4.16,73.2,6.45,115.96,6.45,26.24,0,51.32-.83,74.54-2.47l1.41,19.95c-23.69,1.67-49.24,2.52-75.94,2.52Z" fill="#fff"/>
          <path id="Path_89" data-name="Path 89" d="M1485.1,782.81c-39.35,0-76.91-3.22-105.74-9.06-42.43-8.6-50.65-19.21-53.13-26.45l18.91-6.5a2.054,2.054,0,0,0-.2-.45c1.39,2.07,11.59,8.71,41.69,14.45,27.09,5.17,62.07,8.01,98.47,8.01s72.58-2.91,99.5-8.18c29.75-5.83,39.57-12.62,40.85-14.74a.693.693,0,0,0-.05.1l18.28,8.12c-1.81,4.07-7.31,16.46-53.44,25.79-28.41,5.75-65.74,8.91-105.13,8.91Z" fill="#fff"/>
          <path id="Path_90" data-name="Path 90" d="M1485.1,866.11c-36.97,0-72.32-3.07-99.53-8.65-40.16-8.23-47.98-18.42-50.36-25.36l18.92-6.5a2.61,2.61,0,0,0-.26-.56c1.38,1.94,11.11,8.14,39.22,13.52,25.42,4.87,58.09,7.55,92.01,7.55s67.67-2.73,92.92-7.7c27.79-5.46,37.19-11.81,38.47-13.79a.865.865,0,0,0-.08.17l18.28,8.12c-1.73,3.9-7,15.76-50.63,24.69-26.81,5.49-61.95,8.51-98.94,8.51Z" fill="#fff"/>
          <path id="Path_91" data-name="Path 91" d="M1660.29,551.17c-1.88,0-3.59-.05-5.23-.16l1.32-19.96c1.28.08,2.64.12,4.2.12h.75a67.819,67.819,0,0,0-1.04-135.63,68.013,68.013,0,0,0-66.35,53.67l-.11.55a68.042,68.042,0,0,0-1.36,13.6v1a67.626,67.626,0,0,0,4.51,23.39l-9,3.48.94,10.05-7.88.73-2.72-7.05a87.179,87.179,0,0,1-5.85-30.21c0-.41-.01-.91-.01-1.4a87.808,87.808,0,0,1,1.56-16.58v-.03l.2-1.01a87.827,87.827,0,1,1,149.62,78.21,87.065,87.065,0,0,1-62.07,27.2c-.49.02-.99.02-1.48.02Z" fill="#fff"/>
          <path id="Path_92" data-name="Path 92" d="M1588.11,501.3v-20a8.894,8.894,0,0,0-1.03.06l1.71-.19c1.38-.15,2.78-.31,4.16-.47l1.6-.18c.35-.03.7-.07,1.05-.11.47-.05.88-.11,1.29-.16l.15-.02,1.7-.22c1.24-.15,2.48-.32,3.71-.48l.17-.02c.34-.04.67-.09,1-.14l4.41-.62c.39-.05.79-.11,1.17-.18l.73-.11.51-.06h.11l2.79,19.79c-.19.03-.37.05-.56.07h-.02c-.12.02-.23.04-.35.05-.53.09-1.07.17-1.61.24-.25.04-.5.08-.74.11l-2.17.3c-.26.04-.57.08-.87.12l-.58.08c-.47.07-.95.13-1.43.19-1.27.17-2.57.34-3.86.5h-.11l-1.3.18-.25.03c-.54.07-1.08.14-1.64.2-.43.05-.9.1-1.38.15l-1.22.14c-1.39.17-2.86.33-4.36.49l-1.39.15a11.719,11.719,0,0,1-1.41.09Z" fill="#fff"/>
          <path id="Path_93" data-name="Path 93" d="M1614.46,498l-2.09-19.89c-.13.01-.25.03-.38.05l2.91-.46c3.63-.58,7.03-1.19,10.17-1.81l3.88,19.62c-3.38.67-7.02,1.31-10.81,1.92-.23.04-.54.09-.84.13l-.45.07c-.21.04-.5.08-.8.12l-.49.07c-.34.06-.72.12-1.09.16Z" fill="#fff"/>
          <path id="Path_94" data-name="Path 94" d="M1632.9,494.71l-4.03-19.59c.54-.11,1.06-.22,1.58-.34.26-.06.53-.12.79-.17l.57-.13c.32-.07.64-.15.96-.22l.21-.05c.47-.1.93-.21,1.38-.32l.17-.04c.46-.1.91-.22,1.35-.33l.12-.03c.57-.13,1.13-.28,1.67-.43h.04c.21-.07.42-.13.63-.19h0c.23-.07.47-.13.71-.19l1.62-.46c.33-.09.65-.19.97-.28.69-.2,1.36-.41,2.02-.62,1.49-.49,2.63-.87,3.63-1.26l.41-.15c.17-.06.34-.12.5-.19l.18-.07a33.507,33.507,0,0,0,4.24-2.01l10.01,17.32a54.239,54.239,0,0,1-6.72,3.22c-.39.16-.79.31-1.19.47l-.29.11c-1.54.59-3.11,1.11-4.59,1.59-.85.27-1.68.53-2.54.78-.82.24-1.66.48-2.53.73h-.01c-.22.07-.45.13-.67.19l-1.31.36c-.69.18-1.4.37-2.12.54-.54.14-1.08.27-1.64.4s-1.11.27-1.68.39c-.36.09-.73.17-1.1.25l-1.28.29c-.68.16-1.38.3-2.08.45Z" fill="#fff"/>
          <path id="Path_95" data-name="Path 95" d="M1664.77,483.6l-11.14-16.1,1.18,1.29-1.35-1.65a.274.274,0,0,1-.05.04l-.03-.04.5-.36h0l.04-.03c.09-.07.19-.13.28-.19l3.96,5.88,8.71,9.52c-.28.26-.57.49-.86.72l-.5.37h0c-.24.18-.49.36-.74.53Z" fill="#fff"/>
          <path id="Path_96" data-name="Path 96" d="M1651.44,539.12l-.69-46.21,10.35-.01,9.65-.14.69,46.06Z" fill="#fff"/>
          <path id="Path_97" data-name="Path 97" d="M1650.46,474.47l-.17-10.88-1.11-74.11,20-.3,1.11,74.06.04,1.63.13,9.32Z" fill="#fff"/>
          <rect id="Rectangle_5" data-name="Rectangle 5" width="149.66" height="20" transform="translate(1584.652 454.463) rotate(-0.86)" fill="#fff"/>
          <path id="Path_98" data-name="Path 98" d="M1649.27,489.16l-7.2-6.94-7.16-6.98,69.82-71.96,14.35,13.93Z" fill="#fff"/>
          <rect id="Rectangle_6" data-name="Rectangle 6" width="20" height="149.65" transform="matrix(0.696, -0.718, 0.718, 0.696, 1600.151, 419.023)" fill="#fff"/>
          <path id="Path_99" data-name="Path 99" d="M1481.51,740.98a16.52,16.52,0,1,1,11.67-28.19,16.515,16.515,0,0,1-11.67,28.19Z" fill="#fff"/>
          <path id="Path_100" data-name="Path 100" d="M1415.21,628.31a15.475,15.475,0,1,1,10.94-26.41,15.475,15.475,0,0,1-10.94,26.41Z" fill="#fff"/>
          <path id="Path_101" data-name="Path 101" d="M1578.25,591.89a16.538,16.538,0,0,1-16.52-16.52,16.518,16.518,0,1,1,16.52,16.52Z" fill="#fff"/>
          <path id="Path_102" data-name="Path 102" d="M1416.76,739.35a30.414,30.414,0,0,1-27.37-17.23l-9.19-19.26a30.3,30.3,0,0,1,14.3-40.33l19.25-9.19a29.9,29.9,0,0,1,12.97-2.94,30.436,30.436,0,0,1,27.37,17.23l9.19,19.26a30.313,30.313,0,0,1-14.29,40.34l-19.27,9.19a29.813,29.813,0,0,1-12.96,2.93Z" fill="#fff"/>
          <path id="Path_103" data-name="Path 103" d="M1427.34,689.87l-.06-.13a6.669,6.669,0,0,0,1.3-.45l-1.24.59Zm-7.22-3.28-.19-.39c.06.13.13.26.2.39h0Zm4.57-2.27-5.95-12.5,1.24-.59a13.52,13.52,0,0,1,17.96,6.29l.08.16-13.33,6.64Z" fill="#fff"/>
          <rect id="Rectangle_7" data-name="Rectangle 7" width="20" height="0.56" transform="translate(1427.225 700.886) rotate(-23.3)" fill="#fff"/>
          <path id="Path_104" data-name="Path 104" d="M1544.27,676.76a31.252,31.252,0,0,1-16.68-4.81l-19.1-12.02a31.468,31.468,0,0,1-9.86-43.32l12.02-19.1a31.475,31.475,0,0,1,43.32-9.87l19.1,12.02a31.473,31.473,0,0,1,9.87,43.33l-12.02,19.1A31.308,31.308,0,0,1,1544.27,676.76Z" fill="#fff"/>
          <path id="Path_105" data-name="Path 105" d="M1543.62,656.04a13.61,13.61,0,0,1-7.1-1.99l-.26-.15,7.52-12.87,12.1,7.62-.63,1a13.721,13.721,0,0,1-11.62,6.4Zm-5.3-17.06.63-1,.09.06A6,6,0,0,0,1538.32,638.98Zm8.67-1.97a4.22,4.22,0,0,0-.66-.36v-.02Z" fill="#fff"/>
          <rect id="Rectangle_8" data-name="Rectangle 8" width="20" height="0.56" transform="translate(1521.149 644.36) rotate(-66.64)" fill="#fff"/>
          <path id="Path_106" data-name="Path 106" d="M1659.18,577.6c-2.09,0-4.31-.07-6.8-.22l-9.41-.55v-9.95l7.77-74.49.05-.6.19-1.81-1.2.39c-.85.27-1.7.54-2.59.79l-1.48.42-1.26.63h-.98l-.36.11c-.81.23-1.65.45-2.51.65-.52.12-1,.23-1.49.35l-.17.04c-.25.06-.51.12-.77.18l-.76.19c-.61.15-1.27.29-1.95.44l-.63.13c-.36.08-1.78.39-1.78.39-1.36.29-2.71.57-4.1.84-3.31.66-6.85,1.3-10.81,1.93l-1.37.21c-.38.06-.77.12-1.17.17-.15.03-.31.05-.46.08-.59.11-1.2.2-1.82.28l-.22.03-.29.03a1.127,1.127,0,0,1-.14.02c-.8.16-1.54.26-2.13.33l-.84.12-.27.05s-1.36.18-1.63.21l-.46.06c-.23.03-.46.06-.7.1l-.21.03-5.28.67-1.69.22c-.47.05-.94.11-1.42.17s-1.01.13-1.57.18l-.99.12-.17.02c-1.48.18-2.97.34-4.49.5l-1.03.11-.13.03-.59.06c-.15.02-.3.04-.45.05-9.89,1.02-18.93,1.79-27.62,2.36l-7.97.52-2.27-7.66a112.263,112.263,0,0,1-4.59-31.93,114.424,114.424,0,0,1,1.92-20.86A113.019,113.019,0,1,1,1659.18,577.6Z" fill="#fff"/>
          <path id="Path_107" data-name="Path 107" d="M1608.23,828.85l-7.74-18.44c1.57-.66,2.95-1.3,4.21-1.95l9.21,17.75c-1.75.91-3.61,1.78-5.69,2.65Z" fill="#fff"/>
          <path id="Path_108" data-name="Path 108" d="M1534.93,843.12l-1.55-19.94c21.38-1.66,40-4.54,53.86-8.32l5.27,19.29c-15.27,4.17-34.64,7.18-57.58,8.96Z" fill="#fff"/>
        </g>
      </g>
      <g id="Group_33" data-name="Group 33">
        <g id="Group_31" data-name="Group 31">
          <path id="Path_109" data-name="Path 109" d="M1660.29,463.44l-75.52,1.13-2.29.02c-.01-.41-.01-.83-.01-1.24a77.794,77.794,0,0,1,1.56-15.6v-.02a77.826,77.826,0,1,1,132.58,69.31l-2.1-.99-54.22-52.61Z" fill="#f88e81"/>
          <path id="Path_110" data-name="Path 110" d="M1659.18,361.59a103,103,0,1,1,0,206.01c-2.08,0-4.17-.08-6.21-.2h0l2.75-26.37c1.51.1,3.04.14,4.57.14.39,0,.79,0,1.18-.02a77.815,77.815,0,1,0-77.44-93.42v.02a77.794,77.794,0,0,0-1.56,15.6c0,.41,0,.83.01,1.24a77.423,77.423,0,0,0,5.18,26.76l.34-.03c-.11.01-.22.03-.34.04-8.57.88-17.7,1.7-27.31,2.33a102.392,102.392,0,0,1-4.18-29.09,104.691,104.691,0,0,1,1.75-19.04,103.041,103.041,0,0,1,101.26-83.97Z" fill="#fff"/>
          <path id="Path_111" data-name="Path 111" d="M1660.75,492.91h-.01v-.08l2.33-22.32a6.926,6.926,0,0,1-2.61,3.82l-.13-9.32-.04-1.57,54.22,52.61,2.1.99a77.511,77.511,0,0,1-55.14,24.11l-.03-2.18-.69-46.06Z" fill="#f88e81"/>
          <path id="Path_112" data-name="Path 112" d="M1663.07,470.51l-2.33,22.32v.08l-5.02,48.12-2.75,26.36h0l-18.4,176.66h-.04c-6.71,15.11-66.9,28.76-149.43,28.76s-144.36-14.04-149.42-28.76h-.04l-28.5-273.5c2.88,14.24,81.47,25.63,177.97,25.63,26.89,0,52.39-.88,75.24-2.49,9.61-.63,18.74-1.45,27.31-2.33.12-.01.23-.03.34-.04.04,0,.08-.02.11-.02a1.946,1.946,0,0,0,.24-.02c.49-.05.99-.11,1.47-.16,1.47-.15,2.9-.31,4.32-.48.44-.06.88-.11,1.32-.16s.87-.09,1.3-.14c.54-.06,1.06-.13,1.59-.2s1.05-.14,1.58-.2c1.29-.16,2.58-.33,3.85-.5.43-.05.85-.11,1.27-.16.49-.08.97-.14,1.45-.21s.97-.13,1.45-.19c.22-.04.44-.07.66-.1l.64-.09c.58-.07,1.16-.15,1.72-.27.12-.01.23-.03.34-.05.22-.03.43-.05.64-.08.5-.07.99-.14,1.47-.23.19-.02.38-.06.56-.09.44-.07.88-.13,1.3-.2.44-.06.86-.13,1.28-.19q5.52-.885,10.46-1.87c1.32-.26,2.61-.52,3.86-.79.63-.13,1.25-.26,1.86-.4.2-.05.4-.09.6-.13.6-.13,1.19-.26,1.77-.4.55-.13,1.09-.27,1.62-.39s1.05-.25,1.57-.37c.72-.17,1.43-.36,2.11-.55.23-.07.46-.13.68-.19.16-.05.32-.09.49-.13s.32-.09.48-.14h0q1.23-.345,2.4-.69c.78-.22,1.53-.45,2.27-.69,1.47-.46,2.85-.94,4.13-1.43.42-.16.84-.31,1.24-.48a42.189,42.189,0,0,0,5.52-2.64c.51-.3.99-.6,1.43-.9.19-.13.38-.26.55-.39l.18-.12c.11-.1.23-.18.34-.28.11-.08.23-.18.33-.27a6.926,6.926,0,0,0,2.61-3.82Zm-32.85,73.18v-.04c0-10.08-64.92-18.25-145.02-18.25s-145.01,8.17-145.01,18.25a2.228,2.228,0,0,0,.07.57h-.07l18.49,181.36c4.27,12.45,56.6,24.76,126.43,24.76s120.75-11.98,126.43-24.76l18.64-181.54a1.169,1.169,0,0,0,.04-.32v-.03Z" fill="#fff"/>
          <path id="Path_113" data-name="Path 113" d="M1661.44,538.97l.03,2.18c-.39.02-.79.02-1.18.02-1.53,0-3.06-.04-4.57-.14l5.02-48.12h.01Z" fill="#f88e81"/>
          <path id="Path_114" data-name="Path 114" d="M1660.33,465.01l.13,9.32c-.1.09-.22.19-.33.27-.11.1-.23.18-.34.27-.06.04-.12.09-.18.13-.17.12-.36.25-.55.39-.44.3-.92.6-1.43.9a43.576,43.576,0,0,1-5.52,2.63c-.4.17-.82.32-1.24.48-1.28.49-2.66.95-4.13,1.43-.74.24-1.49.47-2.27.7s-1.57.44-2.38.67l18.2-18.76.04,1.57Z" fill="#f88e81"/>
          <path id="Path_115" data-name="Path 115" d="M1660.29,463.44l-18.2,18.76a.1.1,0,0,1-.03.01,4.421,4.421,0,0,1-.48.15c-.17.04-.33.08-.49.12-.22.07-.45.13-.68.2-.68.18-1.39.37-2.11.54-.52.13-1.04.26-1.57.38s-1.07.26-1.62.38c-.58.14-1.17.27-1.77.41l-.6.12c-.61.14-1.23.27-1.86.41-1.25.27-2.54.53-3.86.79q-4.935.975-10.46,1.86c-.42.07-.84.13-1.28.2-.42.07-.86.13-1.3.19-.19.04-.38.07-.56.1-.48.09-.97.16-1.47.23-.21.02-.42.04-.64.07a3.435,3.435,0,0,1-.34.06c-.56.1-1.15.18-1.72.26-.21.04-.43.07-.64.1l-.66.09c-.48.07-.96.13-1.45.2s-.96.13-1.45.2c-.42.06-.84.12-1.27.17-1.27.16-2.56.33-3.85.49l-1.58.21c-.53.06-1.05.12-1.59.19-.43.06-.86.11-1.3.15l-1.32.15c-1.42.17-2.85.33-4.32.49-.48.05-.98.1-1.47.15l-.24.03s-.07.01-.11.02l-.34.03a77.425,77.425,0,0,1-5.18-26.76l2.29-.02,75.52-1.13Z" fill="#f88e81"/>
          <path id="Path_116" data-name="Path 116" d="M1659.06,475.39c.19-.14.38-.27.55-.39C1659.44,475.13,1659.25,475.26,1659.06,475.39Z" fill="#f88e81"/>
          <path id="Path_117" data-name="Path 117" d="M1642.09,482.2c.81-.23,1.61-.45,2.38-.67q-1.17.345-2.4.69Z" fill="#f88e81"/>
          <path id="Path_118" data-name="Path 118" d="M1642.09,482.2l-.02.02h0c-.16.05-.32.1-.48.14a4.421,4.421,0,0,0,.48-.15.1.1,0,0,1,.03-.01Z" fill="#f88e81"/>
          <path id="Path_119" data-name="Path 119" d="M1641.58,482.36c-.17.04-.33.08-.49.13-.22.06-.45.12-.68.19.23-.07.46-.13.68-.2C1641.25,482.44,1641.41,482.4,1641.58,482.36Z" fill="#f88e81"/>
          <path id="Path_120" data-name="Path 120" d="M1634.57,744.05l-8.82,84.63-.21.17c-6.31,14.2-62.88,27.26-140.44,27.26s-135.68-13.43-140.43-27.26l-.21-.17-8.82-84.63h.04c5.06,14.72,66.9,28.76,149.42,28.76s142.72-13.65,149.43-28.76h.04Z" fill="#fff"/>
          <path id="Path_121" data-name="Path 121" d="M1633.34,484.39c-.2.04-.4.08-.6.13-.61.14-1.23.27-1.86.4.63-.14,1.25-.27,1.86-.41Z" fill="#f88e81"/>
          <path id="Path_122" data-name="Path 122" d="M1630.22,543.65v.04l-289.96.53a2.222,2.222,0,0,1-.07-.57c0-10.08,64.92-18.25,145.01-18.25s145.02,8.17,145.02,18.25Z" fill="#ed6d6d"/>
          <path id="Path_123" data-name="Path 123" d="M1630.22,543.69v.03l-.04.32c-1.64,9.9-65.505,23.114-144.575,23.114S1342.65,554.04,1340.26,544.22l144.94-10.939Z" fill="#ed6d6d"/>
          <path id="Path_124" data-name="Path 124" d="M1630.18,544.04l.04-.32A1.169,1.169,0,0,1,1630.18,544.04Z" fill="#ed6d6d"/>
          <path id="Path_125" data-name="Path 125" d="M1630.18,544.04l-18.64,181.54c-5.68,12.78-56.61,24.76-126.43,24.76s-122.16-12.31-126.43-24.76l-18.49-181.36h.07c2.39,9.82,66.36,17.68,144.94,17.68s143.34-7.96,144.98-17.86Zm-45.41,31.33a6.521,6.521,0,1,0-1.91,4.61,6.493,6.493,0,0,0,1.91-4.61Zm-10.29,62.3a21.5,21.5,0,0,0-6.73-29.54l-19.1-12.02a21.472,21.472,0,0,0-29.53,6.73l-12.02,19.1a21.469,21.469,0,0,0,6.72,29.53l19.1,12.02a21.483,21.483,0,0,0,29.54-6.72l12.02-19.1Zm-86.45,86.79a6.556,6.556,0,0,0-6.52-6.52,6.512,6.512,0,1,0,6.52,6.52Zm-43.34-6.26a20.328,20.328,0,0,0,9.57-27.01l-9.19-19.26a20.319,20.319,0,0,0-27.01-9.57l-19.26,9.19a20.308,20.308,0,0,0-9.57,27l9.19,19.27a20.316,20.316,0,0,0,27,9.57Zm-24-105.37a5.4,5.4,0,0,0-1.61-3.86,5.444,5.444,0,1,0,1.61,3.86Z" fill="#f88e81"/>
          <path id="Path_126" data-name="Path 126" d="M1615.28,487.77c-.42.07-.86.13-1.3.2-.18.03-.37.07-.56.09.18-.03.37-.06.56-.1C1614.42,487.9,1614.86,487.84,1615.28,487.77Z" fill="#f88e81"/>
          <path id="Path_127" data-name="Path 127" d="M1611.95,488.29c-.21.03-.42.05-.64.08-.11.02-.22.04-.34.05a3.435,3.435,0,0,0,.34-.06c.22-.03.43-.05.64-.07Z" fill="#f88e81"/>
          <path id="Path_128" data-name="Path 128" d="M1599.93,489.93c1.29-.16,2.58-.33,3.85-.49-1.27.17-2.56.34-3.85.5-.53.06-1.05.13-1.58.2l1.58-.21Z" fill="#f88e81"/>
          <path id="Path_129" data-name="Path 129" d="M1598.35,490.14c-.53.07-1.05.14-1.59.2-.43.05-.86.1-1.3.14.44-.04.87-.09,1.3-.15.54-.07,1.06-.13,1.59-.19Z" fill="#f88e81"/>
          <path id="Path_130" data-name="Path 130" d="M1589.82,491.12c-.48.05-.98.11-1.47.16a1.94,1.94,0,0,1-.24.02l.24-.03C1588.84,491.22,1589.34,491.17,1589.82,491.12Z" fill="#f88e81"/>
          <path id="Path_131" data-name="Path 131" d="M1582.86,570.77a6.506,6.506,0,1,1-4.61-1.91,6.493,6.493,0,0,1,4.61,1.91Z" fill="#f88e81"/>
          <path id="Path_132" data-name="Path 132" d="M1567.75,608.13a21.5,21.5,0,0,1,6.73,29.54l-12.02,19.1a21.483,21.483,0,0,1-29.54,6.72l-19.1-12.02a21.469,21.469,0,0,1-6.72-29.53l12.02-19.1a21.472,21.472,0,0,1,29.53-6.73l19.1,12.02Z" fill="#f88e81"/>
          <path id="Path_133" data-name="Path 133" d="M1556.17,464.6a102.388,102.388,0,0,0,4.18,29.09c-22.85,1.61-48.35,2.49-75.24,2.49-96.5,0-175.09-11.39-177.97-25.63l-.09-.81v-.02c.07-14.62,79.78-26.47,178.06-26.47,25.94,0,50.58.84,72.81,2.31a104.691,104.691,0,0,0-1.75,19.04Z" fill="#fff"/>
          <path id="Path_134" data-name="Path 134" d="M1486.11,719.86a6.515,6.515,0,0,1-4.6,11.12,6.52,6.52,0,1,1,4.6-11.12Z" fill="#f88e81"/>
          <path id="Path_135" data-name="Path 135" d="M1454.26,691.19a20.328,20.328,0,0,1-9.57,27.01l-19.27,9.19a20.316,20.316,0,0,1-27-9.57l-9.19-19.27a20.308,20.308,0,0,1,9.57-27l19.26-9.19a20.319,20.319,0,0,1,27.01,9.57Z" fill="#f88e81"/>
          <path id="Path_136" data-name="Path 136" d="M1419.08,608.97a5.475,5.475,0,0,1-3.87,9.34,5.475,5.475,0,1,1,3.87-9.34Z" fill="#f88e81"/>
        </g>
        <g id="Group_32" data-name="Group 32">
          <path id="Path_137" data-name="Path 137" d="M1652.97,567.4l-18.4,176.65-8.82,84.63" fill="none" stroke="#1d1d1b" stroke-linecap="round" stroke-linejoin="round" stroke-width="9.55"/>
          <path id="Path_138" data-name="Path 138" d="M1344.46,828.68l-8.82-84.63-28.5-273.5-.09-.81" fill="none" stroke="#1d1d1b" stroke-linecap="round" stroke-linejoin="round" stroke-width="9.55"/>
          <path id="Path_139" data-name="Path 139" d="M1560.35,493.69c-22.85,1.61-48.35,2.49-75.24,2.49-96.5,0-175.09-11.39-177.97-25.63a3.72,3.72,0,0,1-.09-.81v-.02c.07-14.62,79.78-26.47,178.06-26.47,25.94,0,50.58.84,72.81,2.31" fill="none" stroke="#1d1d1b" stroke-linecap="round" stroke-linejoin="round" stroke-width="9.55"/>
          <path id="Path_140" data-name="Path 140" d="M1634.53,744.05c-6.71,15.11-66.9,28.76-149.43,28.76s-144.36-14.04-149.42-28.76" fill="none" stroke="#1d1d1b" stroke-linecap="round" stroke-linejoin="round" stroke-width="9.55"/>
          <path id="Path_141" data-name="Path 141" d="M1625.54,828.85c-6.31,14.2-62.88,27.26-140.44,27.26s-135.68-13.43-140.43-27.26" fill="none" stroke="#1d1d1b" stroke-linecap="round" stroke-linejoin="round" stroke-width="9.55"/>
          <path id="Path_142" data-name="Path 142" d="M1588,491.32l-.34.03a77.425,77.425,0,0,1-5.18-26.76c-.01-.41-.01-.83-.01-1.24a77.794,77.794,0,0,1,1.56-15.6v-.02a77.832,77.832,0,1,1,77.44,93.42c-.39.02-.79.02-1.18.02-1.53,0-3.06-.04-4.57-.14" fill="none" stroke="#1d1d1b" stroke-linecap="round" stroke-linejoin="round" stroke-width="9.55"/>
          <path id="Path_143" data-name="Path 143" d="M1611.95,488.29c-.21.03-.42.05-.64.08-.11.02-.22.04-.34.05-.56.1-1.15.18-1.72.26-.21.04-.43.07-.64.1l-.66.09c-.48.07-.96.13-1.45.2s-.96.13-1.45.2c-.42.06-.84.12-1.27.17-1.27.17-2.56.34-3.85.5-.53.06-1.05.13-1.58.2s-1.05.14-1.59.2c-.43.05-.86.1-1.3.14l-1.32.15c-1.42.17-2.85.33-4.32.49-.48.05-.98.11-1.47.16a1.94,1.94,0,0,1-.24.02" fill="none" stroke="#1d1d1b" stroke-linecap="round" stroke-linejoin="round" stroke-width="9.55"/>
          <path id="Path_144" data-name="Path 144" d="M1627.02,485.71q-4.935.975-10.46,1.86c-.42.07-.84.13-1.28.2-.42.07-.86.13-1.3.2-.18.03-.37.07-.56.09" fill="none" stroke="#1d1d1b" stroke-linecap="round" stroke-linejoin="round" stroke-width="9.55"/>
          <path id="Path_145" data-name="Path 145" d="M1657.63,476.29a43.576,43.576,0,0,1-5.52,2.63c-.4.17-.82.32-1.24.48-1.28.49-2.66.95-4.13,1.43-.74.24-1.49.47-2.27.7s-1.58.46-2.4.69h0c-.16.05-.32.1-.48.14s-.33.08-.49.13c-.22.06-.45.12-.68.19-.68.18-1.39.37-2.11.54-.52.13-1.04.26-1.57.38s-1.07.26-1.62.38c-.58.14-1.17.27-1.77.41-.2.04-.4.08-.6.13-.61.14-1.23.27-1.86.4" fill="none" stroke="#1d1d1b" stroke-linecap="round" stroke-linejoin="round" stroke-width="9.55"/>
          <path id="Path_146" data-name="Path 146" d="M1660.13,474.6c-.11.1-.23.18-.34.27-.06.04-.12.09-.18.13-.17.13-.36.26-.55.39" fill="none" stroke="#1d1d1b" stroke-linecap="round" stroke-linejoin="round" stroke-width="9.55"/>
          <path id="Path_147" data-name="Path 147" d="M1661.44,538.97l-.69-46.06v-.01" fill="none" stroke="#1d1d1b" stroke-linecap="round" stroke-linejoin="round" stroke-width="9.55"/>
          <path id="Path_148" data-name="Path 148" d="M1660.46,474.33l-.13-9.32-.04-1.57-1.11-74.11" fill="none" stroke="#1d1d1b" stroke-linecap="round" stroke-linejoin="round" stroke-width="9.55"/>
          <path id="Path_149" data-name="Path 149" d="M1734.41,462.33l-74.12,1.11-75.52,1.13" fill="none" stroke="#1d1d1b" stroke-linecap="round" stroke-linejoin="round" stroke-width="9.55"/>
          <path id="Path_150" data-name="Path 150" d="M1711.91,410.25l-51.62,53.19-18.2,18.76-.02.02" fill="none" stroke="#1d1d1b" stroke-linecap="round" stroke-linejoin="round" stroke-width="9.55"/>
          <path id="Path_151" data-name="Path 151" d="M1607.11,411.83l53.18,51.61,54.22,52.61" fill="none" stroke="#1d1d1b" stroke-linecap="round" stroke-linejoin="round" stroke-width="9.55"/>
          <path id="Path_152" data-name="Path 152" d="M1481.51,730.98a6.52,6.52,0,1,1,4.6-11.12,6.515,6.515,0,0,1-4.6,11.12Z" fill="none" stroke="#1d1d1b" stroke-linecap="round" stroke-linejoin="round" stroke-width="7.64"/>
          <path id="Path_153" data-name="Path 153" d="M1415.21,618.31a5.475,5.475,0,1,1,3.87-9.34,5.475,5.475,0,0,1-3.87,9.34Z" fill="none" stroke="#1d1d1b" stroke-linecap="round" stroke-linejoin="round" stroke-width="6.42"/>
          <path id="Path_154" data-name="Path 154" d="M1578.25,581.89a6.541,6.541,0,0,1-6.52-6.52,6.52,6.52,0,1,1,6.52,6.52Z" fill="none" stroke="#1d1d1b" stroke-linecap="round" stroke-linejoin="round" stroke-width="7.64"/>
          <path id="Path_155" data-name="Path 155" d="M1444.69,718.2l-19.27,9.19a20.316,20.316,0,0,1-27-9.57l-9.19-19.27a20.308,20.308,0,0,1,9.57-27l19.26-9.19a20.319,20.319,0,0,1,27.01,9.57l9.19,19.26A20.328,20.328,0,0,1,1444.69,718.2Z" fill="none" stroke="#1d1d1b" stroke-linecap="round" stroke-linejoin="round" stroke-width="9.55"/>
          <path id="Path_156" data-name="Path 156" d="M1429.08,682.13l-.11-.22a3.517,3.517,0,0,0-4.68-1.66l-1.24.59" fill="none" stroke="#1d1d1b" stroke-linecap="round" stroke-linejoin="round" stroke-width="9.55"/>
          <line id="Line_58" data-name="Line 58" x1="0.22" y1="0.51" transform="translate(1436.4 696.99)" fill="none" stroke="#1d1d1b" stroke-linecap="round" stroke-linejoin="round" stroke-width="9.55"/>
          <path id="Path_157" data-name="Path 157" d="M1507.1,621.94l12.02-19.1a21.472,21.472,0,0,1,29.53-6.73l19.1,12.02a21.5,21.5,0,0,1,6.73,29.54l-12.02,19.1a21.483,21.483,0,0,1-29.54,6.72l-19.1-12.02a21.469,21.469,0,0,1-6.72-29.53Z" fill="none" stroke="#1d1d1b" stroke-linecap="round" stroke-linejoin="round" stroke-width="9.55"/>
          <path id="Path_158" data-name="Path 158" d="M1541.3,645.26l.36.21a3.719,3.719,0,0,0,5.12-1.16l.63-1" fill="none" stroke="#1d1d1b" stroke-linecap="round" stroke-linejoin="round" stroke-width="9.55"/>
          <line id="Line_59" data-name="Line 59" x2="0.51" y2="0.22" transform="translate(1525.19 635.26)" fill="none" stroke="#1d1d1b" stroke-linecap="round" stroke-linejoin="round" stroke-width="9.55"/>
          <path id="Path_159" data-name="Path 159" d="M1557.92,445.56A103.02,103.02,0,1,1,1659.18,567.6c-2.08,0-4.17-.08-6.21-.2h0l2.75-26.37,5.02-48.12v-.08l2.33-22.32a6.926,6.926,0,0,1-2.61,3.82c-.1.09-.22.19-.33.27-.11.1-.23.18-.34.28l-.18.12c-.17.12-.36.25-.55.39-.44.3-.92.6-1.43.9a42.2,42.2,0,0,1-5.52,2.64c-.4.17-.82.32-1.24.48-1.28.49-2.66.97-4.13,1.43-.74.24-1.49.47-2.27.69s-1.57.44-2.38.67c-.01,0-.02.01-.03.01a4.421,4.421,0,0,1-.48.15c-.17.04-.33.08-.49.12-.22.07-.45.13-.68.2-.68.19-1.39.38-2.11.55-.52.12-1.04.24-1.57.37s-1.07.26-1.62.39c-.58.14-1.17.27-1.77.4l-.6.12c-.61.14-1.23.27-1.86.41-1.25.27-2.54.53-3.86.79q-4.935.99-10.46,1.87c-.42.06-.84.13-1.28.19-.42.07-.86.13-1.3.19-.19.04-.38.07-.56.1-.48.09-.97.16-1.47.23-.21.02-.42.04-.64.07a3.435,3.435,0,0,1-.34.06c-.56.12-1.14.2-1.72.27l-.64.09c-.22.03-.44.06-.66.1-.48.06-.96.13-1.45.19s-.96.13-1.45.21c-.42.05-.84.11-1.27.16-1.27.16-2.56.33-3.85.49l-1.58.21c-.53.06-1.05.12-1.59.19-.43.06-.86.11-1.3.15s-.88.1-1.32.16c-1.42.17-2.85.33-4.32.48-.48.05-.98.1-1.47.15l-.24.03s-.07.01-.11.02c-.11.01-.22.03-.34.04-8.57.88-17.7,1.7-27.31,2.33a102.392,102.392,0,0,1-4.18-29.09,104.691,104.691,0,0,1,1.75-19.04Z" fill="none" stroke="#1d1d1b" stroke-linecap="round" stroke-linejoin="round" stroke-width="9.55"/>
          <path id="Path_160" data-name="Path 160" d="M1604.36,819.63c1.74-.73,3.39-1.49,4.95-2.3" fill="none" stroke="#1d1d1b" stroke-linecap="round" stroke-linejoin="round" stroke-width="9.55"/>
          <path id="Path_161" data-name="Path 161" d="M1534.16,833.15c17-1.32,38.13-3.84,55.72-8.64" fill="none" stroke="#1d1d1b" stroke-linecap="round" stroke-linejoin="round" stroke-width="9.55"/>
        </g>
      </g>
    </g>
  </g>
</svg>
